<svg width="16" height="27" viewBox="0 0 16 27" fill="none" xmlns="http://www.w3.org/2000/svg">
<path d="M12.1664 25.6334L0.933072 14.4334C0.799739 14.3 0.705517 14.1556 0.650406 14C0.594406 13.8445 0.566406 13.6778 0.566406 13.5C0.566406 13.3223 0.594406 13.1556 0.650406 13C0.705517 12.8445 0.799739 12.7 0.933072 12.5667L12.1664 1.33337C12.4775 1.02225 12.8664 0.866699 13.3331 0.866699C13.7997 0.866699 14.1997 1.03337 14.5331 1.3667C14.8664 1.70003 15.0331 2.08892 15.0331 2.53337C15.0331 2.97781 14.8664 3.3667 14.5331 3.70003L4.73307 13.5L14.5331 23.3C14.8442 23.6111 14.9997 23.9943 14.9997 24.4494C14.9997 24.9054 14.8331 25.3 14.4997 25.6334C14.1664 25.9667 13.7775 26.1334 13.3331 26.1334C12.8886 26.1334 12.4997 25.9667 12.1664 25.6334Z" fill="#121212"/>
</svg>
